<svg width="108" height="108" viewBox="0 0 108 108" fill="none" xmlns="http://www.w3.org/2000/svg">
<rect width="108" height="108" fill="#EBC805"/>
<g clip-path="url(#clip0_134_6)">
<path d="M26.7227 14.4062C26.7227 14.0234 26.9095 13.832 27.2832 13.832H38.5352C38.9089 13.832 39.0957 14.0234 39.0957 14.4062C39.0957 14.7526 39.0957 15.1172 39.0957 15.5C39.1048 15.8737 39.0957 16.2337 39.0684 16.5801C39.041 16.9447 38.8542 17.127 38.5078 17.127H30.373C30.2637 17.127 30.209 17.1816 30.209 17.291C30.209 18.0475 30.209 18.8086 30.209 19.5742C30.2181 20.3307 30.2227 21.0872 30.2227 21.8438C30.2227 21.9531 30.2773 22.0078 30.3867 22.0078H37.3184C37.6921 22.0078 37.8789 22.1947 37.8789 22.5684V24.7148C37.8789 25.0885 37.6921 25.2754 37.3184 25.2754H30.3867C30.2773 25.2754 30.2227 25.3301 30.2227 25.4395C30.2227 26.2324 30.2227 27.0254 30.2227 27.8184C30.2227 28.6022 30.2181 29.3906 30.209 30.1836C30.1999 30.5573 30.1953 30.9355 30.1953 31.3184C30.2044 31.6921 30.1999 32.0658 30.1816 32.4395C30.1543 32.8132 29.9674 33 29.6211 33H27.2695C26.8958 33 26.709 32.8086 26.709 32.4258C26.709 31.9245 26.7135 31.4277 26.7227 30.9355C26.7409 30.4342 26.7546 29.9329 26.7637 29.4316C26.791 27.3353 26.8047 25.2435 26.8047 23.1562C26.8047 21.6888 26.791 20.2305 26.7637 18.7812C26.7363 17.3229 26.7227 15.8646 26.7227 14.4062ZM41.1875 15.9375C41.1875 15.4362 41.3743 15.0078 41.748 14.6523C42.1217 14.2878 42.5592 14.1055 43.0605 14.1055C43.571 14.1055 44.0176 14.2923 44.4004 14.666C44.7923 15.0306 44.9883 15.4727 44.9883 15.9922C44.9883 16.4935 44.8014 16.931 44.4277 17.3047C44.0632 17.6693 43.6257 17.8516 43.1152 17.8516C42.5957 17.8516 42.1445 17.6647 41.7617 17.291C41.3789 16.9082 41.1875 16.457 41.1875 15.9375ZM41.3926 24.1816V21.1602C41.3926 20.7865 41.5794 20.5996 41.9531 20.5996H44.0586C44.4323 20.5996 44.6191 20.7865 44.6191 21.1602C44.6191 23.0378 44.6237 24.9199 44.6328 26.8066C44.6419 28.6842 44.6465 30.5618 44.6465 32.4395C44.6465 32.8132 44.4596 33 44.0859 33H41.9258C41.5521 33 41.3652 32.8132 41.3652 32.4395C41.3652 31.0632 41.3698 29.6868 41.3789 28.3105C41.388 26.9342 41.3926 25.5579 41.3926 24.1816ZM54.0254 26.4922C54.0254 26.5195 54.1302 26.7109 54.3398 27.0664C54.5586 27.4219 54.8275 27.8594 55.1465 28.3789C55.4746 28.8893 55.8073 29.4134 56.1445 29.9512C56.4909 30.4798 56.7917 30.9492 57.0469 31.3594C57.3021 31.7604 57.4661 32.0202 57.5391 32.1387C57.5846 32.2116 57.6257 32.2891 57.6621 32.3711C57.7077 32.4531 57.7305 32.5397 57.7305 32.6309C57.7305 32.804 57.6484 32.9089 57.4844 32.9453C57.3294 32.9818 57.1882 33 57.0605 33H54.4355C54.2441 33 54.0892 32.9134 53.9707 32.7402C53.597 32.2116 53.2415 31.6647 52.9043 31.0996C52.5762 30.5345 52.2389 29.9831 51.8926 29.4453C51.8379 29.3633 51.7923 29.3223 51.7559 29.3223C51.7194 29.3223 51.6146 29.4727 51.4414 29.7734C51.2682 30.0742 51.0677 30.4342 50.8398 30.8535C50.6211 31.2728 50.416 31.6602 50.2246 32.0156C50.0423 32.3711 49.9147 32.6035 49.8418 32.7129C49.7233 32.9043 49.5592 33 49.3496 33H47.4355C47.3171 33 47.1758 32.9818 47.0117 32.9453C46.8477 32.9089 46.7656 32.804 46.7656 32.6309C46.7656 32.5397 46.7884 32.4531 46.834 32.3711C46.8796 32.2891 46.9206 32.2116 46.957 32.1387C47.0208 32.0293 47.1712 31.7832 47.4082 31.4004C47.6543 31.0085 47.9323 30.5618 48.2422 30.0605C48.5612 29.5592 48.8665 29.0625 49.1582 28.5703C49.459 28.0781 49.7096 27.668 49.9102 27.3398C50.1107 27.0026 50.2109 26.8158 50.2109 26.7793C50.2109 26.7155 50.0924 26.4967 49.8555 26.123C49.6185 25.7402 49.3268 25.2845 48.9805 24.7559C48.6432 24.2181 48.3014 23.6803 47.9551 23.1426C47.6087 22.5957 47.3171 22.1217 47.0801 21.7207C46.8431 21.3197 46.7246 21.069 46.7246 20.9688C46.7246 20.7956 46.8066 20.6908 46.9707 20.6543C47.1348 20.6178 47.276 20.5996 47.3945 20.5996H50.0469C50.2474 20.5996 50.4069 20.6862 50.5254 20.8594C50.5983 20.9505 50.735 21.1693 50.9355 21.5156C51.1361 21.8529 51.3548 22.222 51.5918 22.623C51.8379 23.015 52.0521 23.3568 52.2344 23.6484C52.4258 23.9401 52.5397 24.0859 52.5762 24.0859C52.6309 24.0859 52.681 24.0358 52.7266 23.9355C52.9818 23.4525 53.2051 22.9512 53.3965 22.4316C53.597 21.9121 53.8249 21.4108 54.0801 20.9277C54.1895 20.709 54.3581 20.5996 54.5859 20.5996H56.4453C56.5729 20.5996 56.7142 20.6224 56.8691 20.668C57.0241 20.7044 57.1016 20.8047 57.1016 20.9688C57.1016 21.069 56.9967 21.3105 56.7871 21.6934C56.5866 22.0762 56.3314 22.5273 56.0215 23.0469C55.7207 23.5573 55.4154 24.0677 55.1055 24.5781C54.7956 25.0794 54.5358 25.5124 54.3262 25.877C54.1257 26.2324 54.0254 26.4375 54.0254 26.4922ZM27.2695 64C26.8958 64 26.709 63.8086 26.709 63.4258C26.709 62.9245 26.7181 62.4232 26.7363 61.9219C26.7637 61.4206 26.7819 60.9193 26.791 60.418C26.8184 59.3607 26.8366 58.3079 26.8457 57.2598C26.8548 56.2025 26.8594 55.1497 26.8594 54.1016C26.8594 52.7708 26.8503 51.4401 26.832 50.1094C26.8138 48.7786 26.7865 47.4525 26.75 46.1309V45.9941C26.75 45.9212 26.7591 45.7572 26.7773 45.502C26.8047 45.2467 26.8913 45.1191 27.0371 45.1191C27.1647 45.1191 27.3014 45.2103 27.4473 45.3926C27.5931 45.5749 27.6979 45.707 27.7617 45.7891C29.1654 47.694 30.5189 49.6445 31.8223 51.6406C33.1257 53.6276 34.4609 55.5872 35.8281 57.5195C35.8737 57.5833 35.9193 57.6152 35.9648 57.6152C36.0104 57.6152 36.056 57.5833 36.1016 57.5195C37.5052 55.5781 38.8724 53.6094 40.2031 51.6133C41.543 49.6172 42.9284 47.6621 44.3594 45.748C44.4232 45.666 44.528 45.5384 44.6738 45.3652C44.8288 45.1829 44.9655 45.0918 45.084 45.0918C45.2389 45.0918 45.3255 45.2194 45.3438 45.4746C45.362 45.7298 45.3711 45.8939 45.3711 45.9668V46.1035C45.3346 47.4342 45.3073 48.7695 45.2891 50.1094C45.2708 51.4401 45.2617 52.7708 45.2617 54.1016C45.2617 55.1497 45.2663 56.2025 45.2754 57.2598C45.2845 58.3079 45.3027 59.3607 45.3301 60.418C45.3483 60.9193 45.3665 61.4206 45.3848 61.9219C45.403 62.4232 45.4121 62.9245 45.4121 63.4258C45.4121 63.8086 45.2253 64 44.8516 64H42.5C42.2995 64 42.1582 63.9544 42.0762 63.8633C42.0033 63.7721 41.9577 63.6354 41.9395 63.4531C41.9303 63.3255 41.9258 63.1888 41.9258 63.043C41.9258 62.888 41.9258 62.7422 41.9258 62.6055L41.8984 60.623C41.8802 59.6296 41.8665 58.6361 41.8574 57.6426C41.8483 56.6491 41.8438 55.6556 41.8438 54.6621C41.8438 54.6439 41.8392 54.5892 41.8301 54.498C41.8301 54.3978 41.8073 54.3477 41.7617 54.3477C41.7253 54.3477 41.6842 54.3841 41.6387 54.457C41.5931 54.5208 41.5612 54.5618 41.543 54.5801C40.9505 55.4915 40.3626 56.4121 39.7793 57.3418C39.2051 58.2624 38.6217 59.1829 38.0293 60.1035C37.7923 60.4772 37.5553 60.8555 37.3184 61.2383C37.0814 61.6211 36.8353 61.9948 36.5801 62.3594C36.5254 62.4323 36.4616 62.5143 36.3887 62.6055C36.3158 62.6875 36.2246 62.7285 36.1152 62.7285C36.015 62.7285 35.9238 62.6921 35.8418 62.6191C35.7689 62.5371 35.7051 62.4596 35.6504 62.3867C35.4225 62.0677 35.1947 61.7441 34.9668 61.416C34.748 61.0879 34.5293 60.7598 34.3105 60.4316C33.6725 59.502 33.0345 58.5677 32.3965 57.6289C31.7676 56.681 31.125 55.7467 30.4688 54.8262C30.4596 54.8079 30.4323 54.7715 30.3867 54.7168C30.3411 54.653 30.3001 54.6211 30.2637 54.6211C30.2181 54.6211 30.1908 54.6667 30.1816 54.7578C30.1725 54.849 30.168 54.9036 30.168 54.9219C30.168 55.888 30.1634 56.8542 30.1543 57.8203C30.1452 58.7773 30.1315 59.7389 30.1133 60.7051L30.0859 62.6328C30.0859 62.7604 30.0859 62.8971 30.0859 63.043C30.0951 63.1888 30.0905 63.3255 30.0723 63.4531C30.054 63.6354 30.0085 63.7721 29.9355 63.8633C29.8626 63.9544 29.7214 64 29.5117 64H27.2695ZM47.9551 45.4062C47.9551 45.0234 48.1419 44.832 48.5156 44.832H60.1094C60.4831 44.832 60.6699 45.0234 60.6699 45.4062C60.6699 45.7617 60.6699 46.1263 60.6699 46.5C60.679 46.8646 60.6699 47.2246 60.6426 47.5801C60.6152 47.9447 60.4284 48.127 60.082 48.127H56.1172C56.0078 48.127 55.9531 48.1816 55.9531 48.291C55.9531 49.2572 55.9486 50.2233 55.9395 51.1895C55.9395 52.1465 55.9395 53.1081 55.9395 54.0742C55.9395 55.6328 55.944 57.196 55.9531 58.7637C55.9622 60.3223 55.9668 61.8809 55.9668 63.4395C55.9668 63.8132 55.7799 64 55.4062 64H53.041C52.6673 64 52.4805 63.8132 52.4805 63.4395C52.4805 61.8353 52.485 60.2311 52.4941 58.627C52.5124 57.0228 52.5215 55.4232 52.5215 53.8281L52.5078 48.291C52.5078 48.1816 52.4486 48.127 52.3301 48.127H48.543C48.1966 48.127 48.0098 47.9447 47.9824 47.5801C47.9551 47.2246 47.9414 46.8646 47.9414 46.5C47.9505 46.1263 47.9551 45.7617 47.9551 45.4062ZM79.8789 64.5469C79.8242 64.5469 79.5508 64.3236 79.0586 63.877C78.5755 63.4212 77.9512 62.8288 77.1855 62.0996C76.4199 61.3613 75.5814 60.5547 74.6699 59.6797C73.7585 58.7956 72.8516 57.916 71.9492 57.041C71.0469 56.1569 70.2129 55.3503 69.4473 54.6211C68.6908 53.8828 68.0755 53.2904 67.6016 52.8438C67.1367 52.3971 66.8906 52.1738 66.8633 52.1738C66.8177 52.1738 66.7904 52.2103 66.7812 52.2832C66.7721 52.347 66.7676 52.3926 66.7676 52.4199C66.7676 53.2493 66.7676 54.0788 66.7676 54.9082C66.7767 55.7285 66.7812 56.5534 66.7812 57.3828C66.7812 58.0755 66.7812 58.7682 66.7812 59.4609C66.7812 60.1445 66.7767 60.8372 66.7676 61.5391C66.7676 61.8307 66.7721 62.1497 66.7812 62.4961C66.7995 62.8424 66.7904 63.1615 66.7539 63.4531C66.7357 63.6354 66.6901 63.7721 66.6172 63.8633C66.5443 63.9544 66.403 64 66.1934 64H63.7734C63.3997 64 63.2129 63.8086 63.2129 63.4258C63.2129 62.9062 63.222 62.3867 63.2402 61.8672C63.2676 61.3477 63.2858 60.8281 63.2949 60.3086C63.3132 59.2695 63.3268 58.2305 63.3359 57.1914C63.3451 56.1523 63.3496 55.1133 63.3496 54.0742C63.3496 52.9805 63.3451 51.8867 63.3359 50.793C63.3268 49.6992 63.3086 48.6055 63.2812 47.5117C63.2721 46.9922 63.2539 46.4727 63.2266 45.9531C63.2083 45.4336 63.1992 44.9141 63.1992 44.3945C63.1992 44.3398 63.2266 44.3125 63.2812 44.3125C63.3359 44.3125 63.3815 44.3307 63.418 44.3672C65.5872 46.3815 67.7109 48.446 69.7891 50.5605C71.8672 52.666 73.9727 54.7441 76.1055 56.7949C76.1237 56.8132 76.151 56.8405 76.1875 56.877C76.224 56.9043 76.2604 56.918 76.2969 56.918C76.3516 56.918 76.3789 56.8861 76.3789 56.8223C76.388 56.7493 76.3926 56.6992 76.3926 56.6719C76.3926 55.8242 76.388 54.9811 76.3789 54.1426C76.3789 53.2949 76.3789 52.4473 76.3789 51.5996C76.3789 50.8704 76.3789 50.1458 76.3789 49.4258C76.3789 48.6966 76.3835 47.972 76.3926 47.252C76.3926 46.9512 76.388 46.6413 76.3789 46.3223C76.3698 46.0033 76.3789 45.6934 76.4062 45.3926C76.4245 45.2012 76.4701 45.0599 76.543 44.9688C76.6159 44.8776 76.7572 44.832 76.9668 44.832H79.3184C79.6921 44.832 79.8789 45.0234 79.8789 45.4062C79.8789 45.8802 79.8698 46.3542 79.8516 46.8281C79.8333 47.3021 79.8197 47.7806 79.8105 48.2637C79.7923 49.2572 79.7786 50.2598 79.7695 51.2715C79.7604 52.2741 79.7559 53.2767 79.7559 54.2793C79.7559 57.6882 79.8105 61.097 79.9199 64.5059L79.8789 64.5469ZM36.2656 76.8301C36.2656 76.8757 36.2337 77.0443 36.1699 77.3359C36.1061 77.6276 36.0378 77.9238 35.9648 78.2246C35.901 78.5163 35.8555 78.694 35.8281 78.7578C35.7917 78.8854 35.7415 78.9993 35.6777 79.0996C35.6139 79.1908 35.5046 79.2363 35.3496 79.2363C35.2493 79.2363 35.14 79.2135 35.0215 79.168C34.6751 79.0495 34.3242 78.9538 33.9688 78.8809C33.6224 78.7988 33.2624 78.7578 32.8887 78.7578C32.4329 78.7578 31.9772 78.8216 31.5215 78.9492C31.0749 79.0768 30.7012 79.2956 30.4004 79.6055C30.0996 79.9154 29.9492 80.3438 29.9492 80.8906C29.9492 81.5742 30.1224 82.1393 30.4688 82.5859C30.8151 83.0234 31.2572 83.4017 31.7949 83.7207C32.3418 84.0306 32.9206 84.3405 33.5312 84.6504C34.1419 84.9512 34.7161 85.3112 35.2539 85.7305C35.8008 86.1406 36.2474 86.6602 36.5938 87.2891C36.9401 87.918 37.1133 88.7246 37.1133 89.709C37.1133 91.0579 36.7943 92.1335 36.1562 92.9355C35.5182 93.7376 34.6797 94.3164 33.6406 94.6719C32.6016 95.0273 31.485 95.2051 30.291 95.2051C29.9355 95.2051 29.5117 95.1823 29.0195 95.1367C28.5365 95.1003 28.0534 95.041 27.5703 94.959C27.0964 94.8678 26.6953 94.7585 26.3672 94.6309C26.2578 94.5853 26.1667 94.5306 26.0938 94.4668C26.0208 94.403 25.9844 94.3027 25.9844 94.166C25.9844 94.1113 26.0208 93.9336 26.0938 93.6328C26.1667 93.3229 26.2441 93.013 26.3262 92.7031C26.4082 92.3932 26.4583 92.2018 26.4766 92.1289C26.5221 92.0013 26.5723 91.8965 26.627 91.8145C26.6908 91.7324 26.8001 91.6914 26.9551 91.6914C27.0462 91.6914 27.1328 91.7051 27.2148 91.7324C27.6615 91.86 28.1126 91.9694 28.5684 92.0605C29.0332 92.1517 29.498 92.1973 29.9629 92.1973C30.5371 92.1973 31.0885 92.1198 31.6172 91.9648C32.1549 91.8008 32.5924 91.5273 32.9297 91.1445C33.276 90.7617 33.4492 90.2376 33.4492 89.5723C33.4492 88.8158 33.2715 88.2096 32.916 87.7539C32.5605 87.2891 32.1048 86.9017 31.5488 86.5918C30.9928 86.2728 30.4004 85.972 29.7715 85.6895C29.1517 85.3978 28.5638 85.0605 28.0078 84.6777C27.4518 84.2949 26.9961 83.7982 26.6406 83.1875C26.2852 82.5768 26.1074 81.7839 26.1074 80.8086C26.1074 79.5964 26.3945 78.6211 26.9688 77.8828C27.543 77.1354 28.2995 76.5885 29.2383 76.2422C30.1771 75.8958 31.1842 75.7227 32.2598 75.7227C32.7975 75.7227 33.4173 75.7728 34.1191 75.873C34.821 75.9733 35.418 76.1328 35.9102 76.3516C36.0195 76.3971 36.1061 76.4564 36.1699 76.5293C36.2337 76.5931 36.2656 76.6934 36.2656 76.8301ZM39.9297 95C39.556 95 39.3691 94.8086 39.3691 94.4258C39.3691 93.9245 39.3737 93.4277 39.3828 92.9355C39.401 92.4342 39.4147 91.9329 39.4238 91.4316C39.4421 90.3835 39.4557 89.3353 39.4648 88.2871C39.474 87.2389 39.4785 86.1908 39.4785 85.1426C39.4785 84.0944 39.474 83.0462 39.4648 81.998C39.4557 80.9499 39.4421 79.9017 39.4238 78.8535C39.4147 78.3522 39.401 77.8555 39.3828 77.3633C39.3737 76.862 39.3691 76.3607 39.3691 75.8594C39.3691 75.4766 39.556 75.2852 39.9297 75.2852H42.0078C42.2266 75.2852 42.3678 75.3307 42.4316 75.4219C42.5046 75.513 42.5501 75.6543 42.5684 75.8457C42.5866 75.9642 42.5911 76.0918 42.582 76.2285C42.5729 76.3652 42.5729 76.4974 42.582 76.625L42.5957 78.457C42.6048 79.3685 42.6094 80.2845 42.6094 81.2051C42.6185 82.1165 42.623 83.0326 42.623 83.9531C42.623 83.9714 42.623 84.026 42.623 84.1172C42.6322 84.1992 42.6641 84.2402 42.7188 84.2402C42.7643 84.2402 42.8099 84.2174 42.8555 84.1719C42.901 84.1263 42.9329 84.0898 42.9512 84.0625C44.054 82.8685 45.4486 82.2715 47.1348 82.2715C47.8548 82.2715 48.5247 82.4173 49.1445 82.709C49.7643 82.9915 50.2656 83.4062 50.6484 83.9531C51.0404 84.5 51.2363 85.1562 51.2363 85.9219C51.2363 87.3346 51.25 88.752 51.2773 90.1738C51.3138 91.5957 51.332 93.013 51.332 94.4258C51.332 94.8086 51.1452 95 50.7715 95H48.625C48.4062 95 48.2604 94.9544 48.1875 94.8633C48.1237 94.7721 48.0827 94.6309 48.0645 94.4395C48.028 94.1296 48.0143 93.7559 48.0234 93.3184C48.0417 92.8717 48.0462 92.4844 48.0371 92.1562C48.028 91.3086 48.0234 90.4655 48.0234 89.627C48.0234 88.7793 48.0234 87.9316 48.0234 87.084C48.0234 86.4368 47.8411 85.9538 47.4766 85.6348C47.112 85.3066 46.6198 85.1426 46 85.1426C45.2344 85.1426 44.6055 85.3841 44.1133 85.8672C43.6302 86.3411 43.2702 86.9245 43.0332 87.6172C42.7962 88.3099 42.6777 88.9844 42.6777 89.6406C42.6777 90.4427 42.6732 91.2448 42.6641 92.0469C42.6549 92.8398 42.6458 93.6374 42.6367 94.4395C42.6367 94.8132 42.4499 95 42.0762 95H39.9297ZM53.4375 88.8613C53.4375 87.5944 53.7064 86.4642 54.2441 85.4707C54.791 84.4772 55.5521 83.6934 56.5273 83.1191C57.5026 82.5358 58.6283 82.2441 59.9043 82.2441C61.1621 82.2441 62.2604 82.5312 63.1992 83.1055C64.138 83.6706 64.8672 84.4453 65.3867 85.4297C65.9154 86.4141 66.1797 87.5215 66.1797 88.752C66.1797 90.0189 65.9199 91.1445 65.4004 92.1289C64.8809 93.1042 64.1471 93.8698 63.1992 94.4258C62.2604 94.9818 61.1439 95.2598 59.8496 95.2598C58.5645 95.2598 57.4388 94.9954 56.4727 94.4668C55.5156 93.929 54.7682 93.1816 54.2305 92.2246C53.7018 91.2676 53.4375 90.1465 53.4375 88.8613ZM59.8359 85.0059C59.1432 85.0059 58.5645 85.1927 58.0996 85.5664C57.6348 85.931 57.2839 86.4004 57.0469 86.9746C56.8099 87.5488 56.6914 88.1504 56.6914 88.7793C56.6914 89.3717 56.8145 89.9414 57.0605 90.4883C57.3158 91.0352 57.6758 91.4818 58.1406 91.8281C58.6055 92.1745 59.1569 92.3477 59.7949 92.3477C60.4876 92.3477 61.0618 92.1745 61.5176 91.8281C61.9824 91.4727 62.3288 91.0169 62.5566 90.4609C62.7936 89.9049 62.9121 89.3125 62.9121 88.6836C62.9121 88.0729 62.7936 87.4896 62.5566 86.9336C62.3288 86.3685 61.987 85.9082 61.5312 85.5527C61.0755 85.1882 60.5104 85.0059 59.8359 85.0059ZM75.5723 95.2598C74.8796 95.2598 74.2142 95.1504 73.5762 94.9316C72.9473 94.7129 72.3639 94.3757 71.8262 93.9199C71.7988 93.9017 71.7669 93.8789 71.7305 93.8516C71.7031 93.8151 71.6667 93.7969 71.6211 93.7969C71.5755 93.7969 71.5482 93.8333 71.5391 93.9062C71.5299 93.9701 71.5254 94.0156 71.5254 94.043C71.5072 94.6354 71.498 95.2324 71.498 95.834C71.498 96.4447 71.4889 97.0462 71.4707 97.6387C71.4707 97.8574 71.4707 98.0807 71.4707 98.3086C71.4798 98.5456 71.4753 98.7734 71.457 98.9922C71.4388 99.1745 71.3887 99.3112 71.3066 99.4023C71.2337 99.4935 71.097 99.5391 70.8965 99.5391H68.6953C68.3307 99.5391 68.1484 99.3477 68.1484 98.9648C68.1484 98.263 68.1621 97.5566 68.1895 96.8457C68.2259 96.1348 68.2533 95.4329 68.2715 94.7402C68.3079 93.2546 68.3353 91.7734 68.3535 90.2969C68.3717 88.8112 68.3809 87.3255 68.3809 85.8398C68.3809 85.3932 68.3763 84.9466 68.3672 84.5C68.3672 84.0534 68.3672 83.6068 68.3672 83.1602C68.3672 82.7865 68.554 82.5996 68.9277 82.5996H70.6914C70.974 82.5996 71.1471 82.7135 71.2109 82.9414C71.2839 83.1693 71.3249 83.3971 71.334 83.625C71.3431 83.8438 71.3978 83.9531 71.498 83.9531C71.5345 83.9531 71.5846 83.9303 71.6484 83.8848C72.3138 83.3743 73.0065 82.9779 73.7266 82.6953C74.4466 82.4128 75.2305 82.2715 76.0781 82.2715C77.3633 82.2715 78.4434 82.5723 79.3184 83.1738C80.1934 83.7754 80.8542 84.5775 81.3008 85.5801C81.7474 86.5827 81.9707 87.681 81.9707 88.875C81.9707 90.1784 81.7064 91.3086 81.1777 92.2656C80.6582 93.2227 79.9199 93.9609 78.9629 94.4805C78.0059 95 76.8757 95.2598 75.5723 95.2598ZM74.9297 92.457C75.6224 92.457 76.2513 92.2975 76.8164 91.9785C77.3906 91.6595 77.8464 91.2266 78.1836 90.6797C78.5299 90.1237 78.7031 89.4993 78.7031 88.8066C78.7031 87.722 78.3522 86.8333 77.6504 86.1406C76.9486 85.4388 76.0553 85.0879 74.9707 85.0879C74.196 85.0879 73.5078 85.2839 72.9062 85.6758C72.3047 86.0677 71.8672 86.6283 71.5938 87.3574C71.5938 87.8132 71.5892 88.2689 71.5801 88.7246C71.5801 89.1803 71.5801 89.6361 71.5801 90.0918C71.5801 90.1374 71.6074 90.2331 71.6621 90.3789C71.7259 90.5247 71.7669 90.6204 71.7852 90.666C72.0768 91.2585 72.5143 91.7051 73.0977 92.0059C73.681 92.3066 74.2917 92.457 74.9297 92.457Z" fill="#222222"/>
</g>
<defs>
<clipPath id="clip0_134_6">
<rect width="92" height="92" fill="white" transform="translate(8 8)"/>
</clipPath>
</defs>
</svg>
